<?xml version="1.0" standalone="no"?>
<!DOCTYPE svg PUBLIC "-//W3C//DTD SVG 20010904//EN"
 "http://www.w3.org/TR/2001/REC-SVG-20010904/DTD/svg10.dtd">
<svg version="1.0" xmlns="http://www.w3.org/2000/svg"
 width="512.000000pt" height="512.000000pt" viewBox="0 0 512.000000 512.000000"
 preserveAspectRatio="xMidYMid meet">
<metadata>
Created by potrace 1.14, written by Peter Selinger 2001-2017
</metadata>
<g transform="translate(0.000000,512.000000) scale(0.100000,-0.100000)"
fill="#000000" stroke="none">
<path d="M2863 5104 c-100 -26 -152 -63 -305 -214 -122 -121 -147 -151 -153
-182 -17 -91 -25 -81 393 -501 l387 -387 -943 -942 -942 -943 -387 387 c-420
418 -410 410 -500 393 -32 -5 -62 -31 -184 -154 -84 -84 -156 -166 -169 -192
-40 -77 -58 -151 -55 -231 4 -144 50 -234 182 -362 l51 -50 -79 -84 c-118
-124 -160 -221 -154 -354 1 -40 6 -86 10 -103 17 -68 69 -150 144 -228 l79
-82 -79 -83 c-120 -126 -161 -224 -154 -366 7 -145 78 -270 200 -350 78 -52
128 -68 230 -71 149 -6 245 37 371 164 34 33 65 61 69 61 4 0 28 -21 54 -47
128 -132 228 -181 370 -181 135 0 225 42 349 161 l72 70 23 -20 c12 -12 47
-45 77 -73 102 -95 182 -130 311 -136 161 -6 234 31 421 214 77 75 147 150
155 166 18 35 19 95 3 128 -7 13 -183 195 -393 405 l-380 381 942 943 942 942
382 -380 c210 -210 392 -386 405 -393 33 -16 93 -15 128 3 16 8 90 77 165 154
99 100 145 155 166 198 54 107 66 229 34 335 -25 82 -61 136 -145 225 -36 38
-66 71 -66 74 0 2 33 38 73 80 40 42 85 97 100 123 38 66 60 167 54 253 -9
122 -53 208 -166 322 -33 33 -61 64 -61 67 0 3 28 34 61 68 119 121 165 219
167 355 3 243 -183 437 -431 448 -135 6 -238 -37 -354 -148 -41 -40 -81 -72
-88 -72 -8 0 -44 30 -82 66 -113 109 -192 147 -322 154 -136 8 -238 -35 -363
-154 l-84 -79 -51 53 c-121 127 -215 174 -353 180 -42 2 -98 -3 -127 -11z"/>
</g>
</svg>
